# xmcd
#
# Track frame offsets:
#	150
#	16772
#	27917
#	47377
#	61200
#	78815
#	95700
#	116500
#	128867
#	148017
#	176330
#
# Disc length: 2543 seconds
#
# Revision: 1
# Processed by: cddbd v1.5PL3 Copyright (c) Steve Scherf et al.
# Submitted via: CDex 1.50Beta5
#
DISCID=8209ed0b
DTITLE=エレファントカシマシ - エレファントカシマシ
DYEAR=1900
DGENRE=
TTITLE0=ファイティングマン
TTITLE1=デーデ
TTITLE2=星の砂
TTITLE3=浮き草
TTITLE4=てって
TTITLE5=習わぬ経を読む男
TTITLE6=BLUE DAYS
TTITLE7=ゴクロウサン
TTITLE8=夢の中で
TTITLE9=やさしさ
TTITLE10=花男
EXTD=
EXTT0=
EXTT1=
EXTT2=
EXTT3=
EXTT4=
EXTT5=
EXTT6=
EXTT7=
EXTT8=
EXTT9=
EXTT10=
PLAYORDER=
